<svg id="Layer_1" enable-background="new 0 0 256 256" height="512" viewBox="0 0 256 256" width="512" xmlns="http://www.w3.org/2000/svg"><g id="Layer_28"><g><path d="m94.1 216.7v8.4c0 3.1 2.5 5.5 5.5 5.5h15.1c3.1 0 5.5-2.5 5.5-5.5v-8.4z" fill="#5290db"/><path d="m191.3 186.8c-3.5 0-6.3-2.8-6.3-6.3v-148.8c0-3.5 2.8-6.3 6.3-6.3s6.3 2.8 6.3 6.3v148.9c-.1 3.4-2.9 6.2-6.3 6.2z" fill="#fc657e"/><path d="m155.5 60.9c-5.4 4.8-11.8 8.5-18.6 10.8-5.4 1.8-11 2.7-16.7 2.7v63.5c13-.1 25.6 4.7 35.3 13.4l29.5 25.7v-141.7z" fill="#edf4fc"/><path d="m201.4 91.7h-3.9v28.8h3.9c7.9 0 14.4-6.4 14.4-14.4s-6.4-14.4-14.4-14.4z" fill="#ef4460"/><path d="m120.1 137.9h-26v13.7h26.2v-13.7c-.1 0-.2 0-.2 0z" fill="#5290db"/><path d="m120.1 74.4h-12.6v63.5h12.6.1v-63.5z" fill="#ef4460"/><path d="m107.5 74.4h-24.3c-17.1 0-31.7 13.3-32.4 30.4-.7 17.5 12.9 32.3 30.4 33h1.1 25.3v-63.4z" fill="#fc657e"/><path d="m238.6 168.7h-2.1v-2.1c0-1.6-1.3-2.8-2.8-2.8-1.6 0-2.8 1.3-2.8 2.8v2.1h-2.1c-1.6 0-2.8 1.3-2.8 2.8 0 1.6 1.3 2.8 2.8 2.8h2.1v2.1c0 1.6 1.3 2.8 2.8 2.8 1.6 0 2.8-1.3 2.8-2.8v-2.1h2.1c1.6 0 2.8-1.3 2.8-2.8.1-1.5-1.2-2.8-2.8-2.8.1 0 .1 0 0 0z" fill="#fc657e"/><path d="m45.8 76.8c-5.9-1.1-10.6-5.7-11.8-11.6 0-.1-.2-.2-.3-.2s-.2.1-.2.2c-1.2 5.9-5.9 10.5-11.8 11.6-.1 0-.2.1-.2.3 0 .1.1.2.2.2 5.9 1.1 10.6 5.7 11.8 11.6 0 .1.2.2.3.2s.2-.1.2-.2c1.2-5.9 5.9-10.5 11.8-11.6.1 0 .2-.1.2-.3 0-.1-.1-.2-.2-.2z" fill="#70d6f9"/><path d="m158.9 180.9c-3-.6-5.4-2.9-6.1-5.9 0-.1-.1-.1-.2-.1s-.1.1-.1.1c-.6 3-3 5.4-6.1 5.9-.1 0-.1.1-.1.1 0 .1.1.1.1.1 3 .6 5.4 2.9 6.1 5.9 0 .1.1.1.2.1s.1-.1.1-.1c.6-3 3-5.4 6.1-5.9.1 0 .1-.1.1-.1s-.1-.1-.1-.1z" fill="#f5c84c"/><circle cx="63.6" cy="54.9" fill="#f5c84c" r="3"/><circle cx="214.6" cy="190.9" fill="#87d147" r="3"/><path d="m130.3 176c0-4.5-3.6-8.1-8.1-8.1 4.5 0 8.1-3.6 8.2-8.1 0-4.5-3.6-8.1-8.1-8.2 0 0 0 0-.1 0h-28.1v-13.7h-9.5c-3.1 0-6.1 1.2-8.5 3.2-10.5 7.1-1.8 10.9-31.5 10.9v59.3c17.3.4 18.8-1.1 27.8 1.9 4.5 1.3 9.1 3.7 16.9 3.7h33c4.5 0 8.1-3.6 8.2-8.1 0-4.5-3.6-8.1-8.1-8.2 0 0 0 0-.1 0 4.5 0 8.1-3.6 8.1-8.1s-3.6-8.1-8.1-8.1c4.4-.3 8-3.9 8-8.4z" fill="#f9d0b4"/><path d="m42 146.3h-11.6v70.4h11.6c1.4 0 2.5-1.1 2.5-2.5v-65.4c0-1.4-1.1-2.5-2.5-2.5z" fill="#edf4fc"/><path d="m5 141.4h22.9c1.4 0 2.5 1.1 2.5 2.5v76.4c0 1.4-1.1 2.5-2.5 2.5h-22.9c-1.4 0-2.5-1.1-2.5-2.5v-76.4c0-1.4 1.1-2.5 2.5-2.5z" fill="#70d6f9"/><path d="m5 225.3h22.9c2.8 0 5-2.2 5-5v-1.1h9.1c2.8 0 5-2.2 5-5v-.5c4.2.1 7.4 0 10 0 7.7-.1 9.5-.1 17.9 2.8 4.6 1.8 9.4 2.7 14.3 2.7h2.3v5.9c0 4.4 3.6 8 8 8h15.1c4.4 0 8-3.6 8-8v-5.9c5.9-.3 10.4-5.3 10.1-11.1-.1-3-1.5-5.7-3.8-7.6 4.5-3.8 5.1-10.5 1.3-15-.4-.5-.8-.9-1.3-1.3 4.5-3.8 5.1-10.5 1.3-15-.4-.5-.8-.9-1.3-1.3 2.4-2 3.8-5 3.8-8.1 0-6.2-5.3-10.6-10-10.6h-.1v-8.7c24 1.2 31.9 14.6 59.8 37.7v2.4c0 4.9 3.9 8.8 8.8 8.8s8.8-3.9 8.8-8.8v-57.6h1.4c9.3 0 16.9-7.6 16.9-16.9s-7.6-16.9-16.9-16.9h-1.4v-57.5c0-4.9-3.9-8.8-8.8-8.8s-8.8 3.9-8.8 8.8v2.4c-25.3 21-31.4 30.3-46.3 35.2-5.1 1.7-10.5 2.5-15.9 2.6h-.1-36.9c-18.8 0-34.1 14.4-34.9 32.8-.7 16.2 10.1 30.6 25.7 34.6-2.1 1.5-4 3.3-5.6 5.3-2.4 2.9-3.8 4.6-21.5 4.7v-.6c0-2.8-2.2-5-5-5h-9.1c-.1-2.7-2.3-4.9-5-4.9h-22.8c-2.8 0-5 2.2-5 5v76.4c0 2.9 2.2 5.1 5 5.1zm112.7-.2c0 1.7-1.4 3-3 3h-15.1c-1.7 0-3-1.4-3-3v-5.9h21.2zm-21.1-84.7h21.2v8.7h-21.2zm104.8-46.2c6.6 0 11.9 5.3 11.9 11.9s-5.3 11.9-11.9 11.9h-1.4v-23.8zm-13.9-62.5c0-2.1 1.7-3.8 3.8-3.8s3.8 1.7 3.8 3.8v148.9c0 2.1-1.7 3.8-3.8 3.8s-3.8-1.7-3.8-3.8zm-49.8 42.4c16.1-5.3 22.8-15.3 44.8-33.3v130.7c-23.4-19.2-33.4-34.9-59.8-36v-58.7c5.1-.2 10.1-1.1 15-2.7zm-20 61.3h-7.7v-58.5h7.7zm-64.4-30.5c.6-15.7 13.7-28 29.9-28h21.8v58.5c-13.9 0 .9 0-22.8 0-16.1-.1-29.1-13.3-29-29.4.1-.4.1-.7.1-1.1zm19 42.9c1.4-1.8 3.1-3.4 5.1-4.7 1.5-1 3.3-2.7 7.1-2.7h7.1v11.2c0 1.4 1.1 2.5 2.5 2.5h28.1c3.1 0 5.6 2.5 5.6 5.6s-2.5 5.6-5.6 5.6h-23.5c-1.4 0-2.5 1.1-2.5 2.5s1.1 2.5 2.5 2.5h23.5c3.1 0 5.6 2.5 5.6 5.6s-2.5 5.6-5.6 5.6h-23.5c-1.4 0-2.5 1.1-2.5 2.5s1.1 2.5 2.5 2.5h23.5c3.1 0 5.6 2.5 5.6 5.6s-2.5 5.6-5.6 5.6h-23.5c-1.4 0-2.5 1.1-2.5 2.5s1.1 2.5 2.5 2.5h23.5c3.1 0 5.6 2.5 5.6 5.6s-2.5 5.6-5.6 5.6h-33c-12 0-14.3-5.8-32.3-5.5-2.6 0-5.7.1-9.9 0v-54.3c19.2.1 21.7-1.9 25.3-6.3zm-30.3 1v65.4h-9.1v-65.4zm-37-4.9h22.9v76.4h-22.9z"/><path d="m253.5 103.3h-17.5c-1.4 0-2.5 1.1-2.5 2.5s1.1 2.5 2.5 2.5h17.5c1.4 0 2.5-1.1 2.5-2.5s-1.1-2.5-2.5-2.5z"/><path d="m248.7 79.9c-.7-1.2-2.2-1.6-3.4-.9l-15.2 8.8c-1.2.7-1.6 2.2-.9 3.4s2.2 1.6 3.4.9l15.2-8.8c1.2-.7 1.6-2.2.9-3.4z"/><path d="m218.2 80.6c1.2.7 2.7.3 3.4-.9l8.8-15.2c.7-1.2.3-2.7-.9-3.4s-2.7-.3-3.4.9l-8.8 15.2c-.7 1.2-.3 2.7.9 3.4z"/><path d="m218.4 135 8.8 15.2c1.6 2.8 6 .4 4.3-2.5l-8.8-15.2c-.7-1.2-2.2-1.6-3.4-.9s-1.6 2.2-.9 3.4c-.1 0-.1 0 0 0z"/><path d="m249.3 131.9c.7-1.2.3-2.7-.9-3.4l-15.2-8.8c-1.2-.7-2.7-.3-3.4.9s-.3 2.7.9 3.4l15.2 8.8c1.2.7 2.8.3 3.4-.9z"/><path d="m84.5 90.8h9c1.4 0 2.5-1.1 2.5-2.5s-1.1-2.5-2.5-2.5h-9c-1.4 0-2.5 1.1-2.5 2.5s1.1 2.5 2.5 2.5z"/><path d="m84.5 102.7h9c1.4 0 2.5-1.1 2.5-2.5s-1.1-2.5-2.5-2.5h-9c-1.4 0-2.5 1.1-2.5 2.5s1.1 2.5 2.5 2.5z"/><path d="m84.5 114.6h9c1.4 0 2.5-1.1 2.5-2.5s-1.1-2.5-2.5-2.5h-9c-1.4 0-2.5 1.1-2.5 2.5s1.1 2.5 2.5 2.5z"/><path d="m84.5 126.4h9c1.4 0 2.5-1.1 2.5-2.5s-1.1-2.5-2.5-2.5h-9c-1.4 0-2.5 1.1-2.5 2.5s1.1 2.5 2.5 2.5z"/></g></g></svg>