<?xml version="1.0" encoding="iso-8859-1"?>
<!-- Generator: Adobe Illustrator 19.0.0, SVG Export Plug-In . SVG Version: 6.00 Build 0)  -->
<svg version="1.1" id="Capa_1" xmlns="http://www.w3.org/2000/svg" xmlns:xlink="http://www.w3.org/1999/xlink" x="0px" y="0px"
	 viewBox="0 0 504.2 504.2" style="enable-background:new 0 0 504.2 504.2;" xml:space="preserve">
<path style="fill:#FFFFFF;" d="M288.3,392.3c0-57.5,46.5-104,104-104s104,46.5,104,104s-46.5,104-104,104S288.3,449.8,288.3,392.3z"
	/>
<path style="fill:#183651;" d="M392.3,504.2c-61.4,0-111.9-50.4-111.9-111.9s50.4-111.9,111.9-111.9s111.9,50.4,111.9,111.9
	S453.7,504.2,392.3,504.2z M392.3,296.2c-52.8,0-96.1,43.3-96.1,96.1s43.3,96.1,96.1,96.1s96.1-43.3,96.1-96.1
	S445.1,296.2,392.3,296.2z"/>
<circle style="fill:#2CA0DA;" cx="392.3" cy="392.3" r="77.2"/>
<g>
	<path style="fill:#E1E6E7;" d="M455.3,437.2c3.9-5.5,7.1-11.8,9.5-18.1l-7.1-3.2l-7.1-4.7l-0.8-4.7l-3.9-3.2l-3.2,3.2
		c-0.8-5.5-6.3-9.5-6.3-9.5l3.2-3.9l-11.8-5.5c-9.5-8.7-13.4,0-13.4,0l-12.6-1.6l-1.6,2.4l2.4,3.2l-2.4,2.4l-2.4-0.8l-4.7,7.1
		l1.6,13.4l4.7,0.8l4.7,4.7l3.2-0.8l3.9,2.4v3.2l3.9,3.2l-4.7,7.1l-2.4,13.4l-7.1,4.7v4.7l-3.9,5.5l0.8,7.1
		C419.1,467.9,441.1,456.9,455.3,437.2z"/>
	<path style="fill:#E1E6E7;" d="M351.3,341.9c0,0-2.4,1.6,0,5.5l3.9-3.9h7.9l3.2-1.6l16.5-1.6c0,0,3.2-2.4,7.1,1.6
		c0,0-3.9-4.7,0-4.7c0,0,3.2,0,3.2,3.9c0,0,1.6,1.6,4.7,1.6c3.2-0.8,0,2.4,0,2.4s-3.9,0-0.8,3.9c3.2,3.2,3.9,3.2,3.9,1.6
		s-2.4-4.7,0-4.7c2.4-0.8,3.9,0.8,2.4-2.4c-0.8-3.2,0.8-7.1,0.8-7.1s-3.2,0-4.7-1.6c-2.4-0.8,4.7-3.9,0-6.3c-4.7-1.6-4.7-4.7-7.1,0
		s-8.7,3.9-12.6,2.4c-3.2-1.6-4.7-7.9-3.9-11.8c-12.6,2.4-24.4,8.7-34.7,17.3C345.8,335.6,349.8,338.7,351.3,341.9z"/>
	<path style="fill:#E1E6E7;" d="M330.9,433.3l11-3.9c0,0,1.6-9.5,6.3-6.3l3.2,3.2l5.5-1.6l5.5-7.9c0,0,8.7,0,10.2-5.5l-3.2-2.4
		l0.8-2.4l-7.9-7.1c0,0-3.2-3.2-0.8-8.7c2.4-5.5-1.6-6.3-3.2-7.1c-1.6-0.8,3.2-8.7-1.6-9.5c-4.7,0-5.5-1.6-7.1-5.5s-0.8-5.5-6.3-3.2
		c-1.6,0.8-2.4,0.8-3.2,0.8l-5.5-5.5l4.7-6.3l-4.7-3.9l5.5-4.7c0,0-5.5,1.6-9.5,0c-0.8,0.8-1.6,1.6-1.6,2.4
		c-0.8,0.8-0.8,1.6-1.6,2.4l3.2,3.9v8.7l4.7,8.7l-5.5,0.8l-6.3,5.5l0.8,9.5l-2.4,3.2l5.5,9.5l-9.5,11.8c0,0.8,0,0.8,0.8,1.6l0.8,0.8
		l0,0c1.6,6.3,4.7,11.8,7.9,17.3C328.5,433.3,329.3,433.3,330.9,433.3z"/>
</g>
<path style="fill:#FFFFFF;" d="M350.6,7.9h-323c-11,0-19.7,9.5-19.7,20.5v58.3h362.3V28.4C370.3,17.4,361.6,7.9,350.6,7.9z"/>
<path style="fill:#183651;" d="M370.3,94.6H7.9c-4.7,0-7.9-3.2-7.9-7.9V28.4C0,12.6,12.6,0,27.6,0h323c15,0,27.6,12.6,27.6,28.4
	v58.3C378.1,90.6,374.2,94.6,370.3,94.6z M15.8,78.8h346.6V28.4c0-7.1-5.5-12.6-11.8-12.6h-323c-6.3,0-11.8,5.5-11.8,12.6L15.8,78.8
	L15.8,78.8z"/>
<path style="fill:#FBBD5E;" d="M7.9,86.7v223.7c0,11,8.7,20.5,19.7,20.5h323c11,0,19.7-9.5,19.7-20.5V86.7H7.9z"/>
<path style="fill:#183651;" d="M350.6,338.7h-323c-15,0-27.6-12.6-27.6-28.4V86.7c0-4.7,3.2-7.9,7.9-7.9h362.3
	c4.7,0,7.9,3.2,7.9,7.9v223.7C378.1,326.1,365.5,338.7,350.6,338.7z M15.8,94.6v215.8c0,7.1,5.5,12.6,11.8,12.6h323
	c6.3,0,11.8-5.5,11.8-12.6V94.6H15.8z"/>
<rect x="37.1" y="116.6" style="fill:#FFFFFF;" width="304" height="184.3"/>
<g>
	<ellipse style="fill:#F06151;" cx="322.2" cy="47.3" rx="12.6" ry="12.6"/>
	<ellipse style="fill:#F06151;" cx="278.9" cy="47.3" rx="12.6" ry="12.6"/>
	<ellipse style="fill:#F06151;" cx="235.6" cy="47.3" rx="12.6" ry="12.6"/>
</g>
<g>
	<path style="fill:#E1E6E7;" d="M182,34.7H51.2c-7.1,0-12.6,5.5-12.6,12.6s5.5,12.6,12.6,12.6H182c7.1,0,12.6-5.5,12.6-12.6
		C194.6,40.2,189.1,34.7,182,34.7z"/>
	<path style="fill:#E1E6E7;" d="M223.8,296.2L223.8,296.2c-11,0-19.7,8.7-19.7,19.7v-11c0-10.2-7.1-19.7-17.3-20.5
		c-11.8-0.8-21.3,7.9-21.3,19.7v-10.2c0-10.2-7.1-19.7-17.3-20.5c-11.8-0.8-21.3,7.9-21.3,19.7V208c0-10.2-7.1-19.7-17.3-20.5
		c-11.8-0.8-21.3,7.9-21.3,19.7v131.5c0-11.8-10.2-20.5-21.3-19.7c-10.2,0.8-17.3,10.2-17.3,20.5v53.6c0,0,32.3,51.2,63,72.5v29.9
		h105.6v-37.8l26.8-44.9v-96.9C243.5,305.7,234.8,296.2,223.8,296.2z"/>
</g>
<path style="fill:#FFFFFF;" d="M59.1,411.2c11.8,16.5,31.5,41.7,51.2,55.1v29.9h105.6v-37.8l26.8-44.9v-1.6"/>
<g>
	<path style="fill:#183651;" d="M248.9,407.8v-91.1c0-15-12.6-27.6-27.6-27.6c-4.7,0-10.2,1.6-14.2,3.9c-3.9-8.7-12.6-15-22.1-15.8
		c-6.3-0.8-12.6,0.8-17.3,3.9c-3.9-8.7-11.8-15-21.3-15.8c-4.7-0.8-9.5,0-14.2,2.4v-59.9c0-14.2-10.2-26.8-24.4-28.4
		c-16.5-1.6-29.9,11.8-29.9,27.6v107.1c-3.9-1.6-8.7-3.2-14.2-2.4c-13.4,1.6-24.4,14.2-24.4,28.4v53.6c0,1.6,0.8,2.4,1.6,3.9
		c0.6,0.6,5,7.3,11.8,16.8c0.2,0.5,0.5,0.9,0.8,1.3c12.6,17.3,30.7,40.2,49.6,54.4v26c0,4.7,3.2,7.9,7.9,7.9h105.6
		c1.6,0,3.9-0.8,5.5-2.4s2.4-3.2,2.4-5.5v-36l24.2-42.5C249.2,416.3,248.9,407.8,248.9,407.8z M234.8,411.2l-26,43.3
		c-0.8,0.8-0.8,2.4-0.8,3.9v29.9h-88.2v-22.8c0-2.4-0.8-4.7-3.2-6.3c-26-18.1-53.6-59.1-59.9-68.5v-51.2c0-6.3,4.7-11.8,10.2-12.6
		c6.3-0.8,12.6,4.7,12.6,11.8l0,0v35.4h15.8v-35.4l0,0V207.2c0-7.1,5.5-12.6,12.6-11.8c5.5,0.8,10.2,6.3,10.2,12.6v85.1v0.8v41.7
		h15.8v-41.7c0-7.1,5.5-12.6,12.6-11.8c5.5,0.8,10.2,6.3,10.2,12.6v9.5v0.8v30.7h15.8V305c0-7.1,5.5-12.6,12.6-11.8
		c5.5,0.8,10.2,6.3,10.2,12.6v11c0,0.2,0,0.5,0,0.7v18.2h15.8v-19.4c0.3-6.1,5.7-11.3,11.8-11.3c6.3,0,11.8,5.5,11.8,11.8v94.4
		H234.8z"/>
	<rect x="219" y="154.4" style="fill:#183651;" width="15.8" height="15.8"/>
	<rect x="258.4" y="154.4" style="fill:#183651;" width="15.8" height="15.8"/>
	<rect x="297.8" y="154.4" style="fill:#183651;" width="15.8" height="15.8"/>
</g>
<g>
</g>
<g>
</g>
<g>
</g>
<g>
</g>
<g>
</g>
<g>
</g>
<g>
</g>
<g>
</g>
<g>
</g>
<g>
</g>
<g>
</g>
<g>
</g>
<g>
</g>
<g>
</g>
<g>
</g>
</svg>
