<?xml version="1.0"?>
<svg xmlns="http://www.w3.org/2000/svg" height="512px" viewBox="0 -24 464 464" width="512px" class=""><g><path d="m42.855469 344h90.144531v34.367188c-.089844 3.433593 2.074219 6.523437 5.332031 7.613281l91.316407 29.484375c.777343.253906 1.585937.386718 2.402343.386718.824219 0 1.644531-.132812 2.429688-.386718l91.199219-29.484375c3.253906-1.089844 5.417968-4.179688 5.320312-7.613281v-34.367188h90.144531c23.375 0 42.855469-19.21875 42.855469-42.59375v-258.867188c0-23.375-19.480469-42.539062-42.855469-42.539062h-378.289062c-23.375 0-42.855469 19.164062-42.855469 42.539062v258.867188c0 23.375 19.480469 42.59375 42.855469 42.59375zm106.144531-79.433594 74 24v107.976563l-74-24zm83 10.09375-65.359375-21.078125 65.359375-21.082031 65.359375 21.078125zm7 122.527344v-107.972656l76-24.648438v107.976563zm-196.144531-381.1875h378.289062c8.496094.03125 16.457031 4.140625 21.402344 11.046875l-198.347656 129.496094c-8.886719 5.84375-20.417969 5.761719-29.226563-.199219l-193.003906-130.003906c4.984375-6.496094 12.699219-10.316406 20.886719-10.339844zm-26.855469 26.539062c0-.179687.234375-.355468.238281-.53125l189.675781 127.621094c14.242188 9.578125 32.835938 9.714844 47.214844.34375l194.871094-127v258.433594c0 14.554688-12.300781 26.59375-26.855469 26.59375h-90.144531v-74.417969c.089844-3.4375-2.074219-6.527343-5.332031-7.613281l-91.316407-29.484375c-1.582031-.515625-3.28125-.515625-4.859374 0l-91.1875 29.484375c-3.25 1.089844-5.40625 4.183594-5.304688 7.613281v74.417969h-90.144531c-14.554688 0-26.855469-12.039062-26.855469-26.59375zm0 0" data-original="#000000" class="active-path" data-old_color="#000000" fill="#f81b64"/></g> </svg>
