<?xml version="1.0" encoding="iso-8859-1"?>
<!-- Generator: Adobe Illustrator 19.0.0, SVG Export Plug-In . SVG Version: 6.00 Build 0)  -->
<svg version="1.1" id="Capa_1" xmlns="http://www.w3.org/2000/svg" xmlns:xlink="http://www.w3.org/1999/xlink" x="0px" y="0px"
	 viewBox="0 0 512 512" style="enable-background:new 0 0 512 512;" xml:space="preserve">
<circle style="fill:#FBAD4A;" cx="134.875" cy="128.345" r="113.05"/>
<path d="M134.878,249.467c-66.787,0-121.122-54.335-121.122-121.122S68.092,7.223,134.878,7.223S256,61.558,256,128.345
	S201.665,249.467,134.878,249.467z M134.878,23.373c-57.881,0-104.972,47.091-104.972,104.972s47.091,104.972,104.972,104.972
	S239.85,186.226,239.85,128.345S192.76,23.373,134.878,23.373z"/>
<circle style="fill:#FEDA4F;" cx="134.875" cy="128.345" r="80.749"/>
<path d="M134.878,217.167c-48.977,0-88.822-39.845-88.822-88.823s39.845-88.823,88.822-88.823s88.822,39.845,88.822,88.823
	S183.855,217.167,134.878,217.167z M134.878,55.672c-40.072,0-72.673,32.601-72.673,72.673s32.601,72.673,72.673,72.673
	s72.673-32.601,72.673-72.673S174.95,55.672,134.878,55.672z"/>
<path d="M156.191,164.963c-3.755,2.539-10.049,5.087-18.047,5.087c-9.81,0-18.532-3.755-24.583-10.78
	c-4.607-5.087-7.635-12.112-8.721-20.832h-7.51v-5.931h6.904c0-0.606,0-1.215,0-1.821c0-1.937,0.121-3.755,0.246-5.451h-7.15v-6.056
	h7.994c1.45-8.479,5.087-15.504,9.932-20.47c6.173-6.419,14.046-10.053,23.979-10.053c7.146,0,12.714,2.067,16.106,3.88
	l-2.422,7.994c-3.028-1.821-8.115-3.391-13.561-3.391c-6.54,0-11.87,2.293-15.988,6.654c-3.634,3.516-6.056,8.967-7.267,15.386
	h33.789v6.056h-34.883c-0.121,1.579-0.242,3.391-0.242,5.087c0,0.727,0,1.333,0,2.185h35.122v5.931h-34.266
	c0.965,7.025,3.391,12.23,6.658,15.867c4.482,4.724,10.537,7.025,17.078,7.025c6.419,0,11.991-2.422,14.773-3.997L156.191,164.963z"
	/>
<rect x="126.807" y="47.596" width="16.15" height="16.15"/>
<rect x="126.807" y="192.948" width="16.15" height="16.15"/>
<rect x="191.4" y="120.267" width="24.225" height="16.15"/>
<rect x="54.13" y="120.267" width="24.225" height="16.15"/>
<circle style="fill:#85D839;" cx="377.121" cy="362.513" r="113.05"/>
<path d="M377.122,483.636C310.335,483.636,256,429.301,256,362.514s54.335-121.122,121.122-121.122s121.122,54.335,121.122,121.122
	S443.909,483.636,377.122,483.636z M377.122,257.542c-57.883,0-104.972,47.089-104.972,104.972s47.089,104.972,104.972,104.972
	s104.972-47.089,104.972-104.972S435.005,257.542,377.122,257.542z"/>
<circle style="fill:#9DFB46;" cx="377.121" cy="362.513" r="80.749"/>
<path d="M377.122,451.337c-48.977,0-88.823-39.845-88.823-88.823s39.845-88.822,88.823-88.822s88.822,39.845,88.822,88.822
	S426.099,451.337,377.122,451.337z M377.122,289.84c-40.07,0-72.673,32.603-72.673,72.673s32.603,72.673,72.673,72.673
	s72.673-32.603,72.673-72.673S417.192,289.84,377.122,289.84z"/>
<rect x="369.043" y="281.764" width="16.15" height="16.15"/>
<rect x="369.043" y="427.116" width="16.15" height="16.15"/>
<rect x="433.646" y="354.435" width="24.225" height="16.15"/>
<rect x="296.372" y="354.435" width="24.225" height="16.15"/>
<path d="M372.842,413.304v-12.23c-7.025-0.125-14.292-2.301-18.532-5.33l2.907-8.115c4.361,2.903,10.659,5.205,17.437,5.205
	c8.6,0,14.413-4.966,14.413-11.866c0-6.661-4.724-10.78-13.686-14.413c-12.359-4.841-19.985-10.416-19.985-20.95
	c0-10.053,7.15-17.68,18.289-19.501v-12.23h7.506v11.749c7.267,0.238,12.234,2.176,15.746,4.235l-3.028,7.994
	c-2.543-1.45-7.51-4.118-15.261-4.118c-9.327,0-12.839,5.567-12.839,10.416c0,6.294,4.482,9.448,15.019,13.808
	c12.476,5.087,18.774,11.378,18.774,22.157c0,9.573-6.661,18.532-19.137,20.599v12.593h-7.623v-0.003H372.842z"/>
<path d="M474.019,249.467h-16.15c0-107.268-80.282-196.981-186.745-208.676l1.766-16.053
	C387.55,37.334,474.019,133.947,474.019,249.467z"/>
<path d="M247.925,475.561c-124.668,0-226.094-101.423-226.094-226.094h16.15c0,115.764,94.181,209.944,209.944,209.944V475.561z"/>
<polygon points="289.656,84.376 252.282,28.315 308.912,0 316.135,14.446 275.868,34.58 303.092,75.417 "/>
<polygon points="226.353,512 213.878,501.749 245.039,463.831 206.984,439.772 215.614,426.123 269.13,459.952 "/>
<g>
</g>
<g>
</g>
<g>
</g>
<g>
</g>
<g>
</g>
<g>
</g>
<g>
</g>
<g>
</g>
<g>
</g>
<g>
</g>
<g>
</g>
<g>
</g>
<g>
</g>
<g>
</g>
<g>
</g>
</svg>
