<svg height="512" viewBox="0 0 64 64" width="512" xmlns="http://www.w3.org/2000/svg"><g id="Keycard"><path d="m25 3h36v58h-36z" fill="#a78966"/><path d="m33 33h-28a2 2 0 0 0 -2 2v4h32v-4a2 2 0 0 0 -2-2z" fill="#c6c5ca"/><path d="m3 43v8a2 2 0 0 0 2 2h28a2 2 0 0 0 2-2v-8z" fill="#fee9ab"/><path d="m35 43v8a2.006 2.006 0 0 1 -2 2h-4a2.006 2.006 0 0 0 2-2v-8z" fill="#ffde55"/><path d="m3 39h32v4h-32z" fill="#ff7956"/><path d="m31 39h4v4h-4z" fill="#ff5023"/><path d="m57 3h4v58h-4z" fill="#806749"/><path d="m49 35h8v8h-8z" fill="#fee9ab"/><path d="m53 35h4v8h-4z" fill="#ffde55"/><circle cx="53" cy="31" fill="#bddbff" r="1"/><path d="m37 9h12v4h-12z" fill="#c6c5ca"/><path d="m45 9h4v4h-4z" fill="#898890"/><path d="m35 35v4.13l-32-.13v-4a2.006 2.006 0 0 1 2-2h28a2.006 2.006 0 0 1 2 2z" fill="#c6c5ca"/><path d="m35 35v4.13l-4-.02v-4.11a2.006 2.006 0 0 0 -2-2h4a2.006 2.006 0 0 1 2 2z" fill="#898890"/><circle cx="19" cy="25" fill="#ff3051" r="2"/><path d="m21 25a2 2 0 0 1 -3 1.73 2 2 0 0 0 0-3.46 2 2 0 0 1 3 1.73z" fill="#cd2a00"/><path d="m61 2h-36a1 1 0 0 0 -1 1v6h2v-5h34v56h-34v-6h7a3 3 0 0 0 3-3v-16a3 3 0 0 0 -3-3h-7v-9h-2v9h-19a3 3 0 0 0 -3 3v16a3 3 0 0 0 3 3h19v7a1 1 0 0 0 1 1h36a1 1 0 0 0 1-1v-58a1 1 0 0 0 -1-1zm-27 40h-30v-2h30zm-29-8h28a1 1 0 0 1 1 1v3h-30v-3a1 1 0 0 1 1-1zm-1 17v-7h30v7a1 1 0 0 1 -1 1h-28a1 1 0 0 1 -1-1z"/><path d="m48 35v8a1 1 0 0 0 1 1h8a1 1 0 0 0 1-1v-12a5 5 0 0 0 -10 0h2a3 3 0 0 1 6 0v3h-7a1 1 0 0 0 -1 1zm2 1h6v6h-6z"/><circle cx="53" cy="31" r="2"/><path d="m49 8h-12a1 1 0 0 0 -1 1v4a1 1 0 0 0 1 1h12a1 1 0 0 0 1-1v-4a1 1 0 0 0 -1-1zm-1 4h-10v-2h10z"/><path d="m19 12a12.948 12.948 0 0 1 9.194 3.809l1.412-1.417a15 15 0 0 0 -21.212 0l1.412 1.417a12.948 12.948 0 0 1 9.194-3.809z"/><path d="m26.777 17.223a10.994 10.994 0 0 0 -15.554 0l1.414 1.414a9 9 0 0 1 12.726 0z"/><path d="m23.95 20.056a6.987 6.987 0 0 0 -9.9 0l1.42 1.408a4.988 4.988 0 0 1 7.06 0z"/><path d="m16 25a3 3 0 1 0 3-3 3 3 0 0 0 -3 3zm4 0a1 1 0 1 1 -1-1 1 1 0 0 1 1 1z"/></g></svg>