<svg height="512" viewBox="0 0 64 64" width="512" xmlns="http://www.w3.org/2000/svg"><g id="Fill_Outline" data-name="Fill Outline"><path d="m24 33h16v16h-16z" fill="#f48bbc"/><circle cx="32" cy="9" fill="#f2ca04" r="6"/><path d="m38 45a10 10 0 0 1 -10-10v-2h-4v16h16v-4z" fill="#f24193"/><path d="m28 45v-8l8 4z" fill="#f2ca04"/><path d="m28.229 37.114-.229-.114v8l4.011-2a9.99 9.99 0 0 1 -3.782-5.886z" fill="#f5af0b"/><path d="m35 12a5.993 5.993 0 0 1 -5.466-8.466 6 6 0 1 0 7.932 7.932 5.974 5.974 0 0 1 -2.466.534z" fill="#f5af0b"/><g fill="#230135"><path d="m28 46a1 1 0 0 0 .447-.1l8-4a1 1 0 0 0 0-1.79l-8-4a1 1 0 0 0 -1.447.89v8a1 1 0 0 0 1 1zm1-7.382 4.764 2.382-4.764 2.382z"/><path d="m23 60h-3v-7a1 1 0 0 0 -2 0v8a1 1 0 0 0 1 1h4a1 1 0 0 0 0-2z"/><path d="m27 52a1 1 0 0 0 -1 1v8a1 1 0 0 0 2 0v-8a1 1 0 0 0 -1-1z"/><path d="m37.352 52.063a1 1 0 0 0 -1.289.586l-2.063 5.503-2.063-5.5a1 1 0 1 0 -1.874.7l3 8a1 1 0 0 0 1.874 0l3-8a1 1 0 0 0 -.585-1.289z"/><path d="m45 54a1 1 0 0 0 0-2h-4a1 1 0 0 0 -1 1v8a1 1 0 0 0 1 1h4a1 1 0 0 0 0-2h-3v-2h3a1 1 0 0 0 0-2h-3v-2z"/><path d="m55.929 60.628-18.767-46.917a7 7 0 1 0 -10.324 0l-4.478 11.194a1 1 0 0 0 1.858.743l.813-2.032 5.468 3.7-9.424 6.185 1.656-4.141a1 1 0 1 0 -1.857-.743l-12.803 32.011a1 1 0 0 0 1.858.744l6.258-15.646 3.024 3.888a1 1 0 1 0 1.578-1.228l-3.742-4.81 2.731-6.828 3.222-2.114v7.366a1 1 0 0 0 2 0v-8h14v14h-14v-2a1 1 0 0 0 -2 0v3a1 1 0 0 0 1 1h16a1 1 0 0 0 1-1v-16a1 1 0 0 0 -1-1h-12.987l5.28-3.465 1.907 1.293a1 1 0 1 0 1.121-1.656l-1.221-.825 5.036-3.3 7.813 19.534-3.742 4.81a1 1 0 1 0 1.578 1.228l3.024-3.888 6.258 15.646a1 1 0 0 0 1.858-.744zm-29.88-38.738 5.951-5.525 6.291 5.842-5.98 3.925zm3.78-6.239-2.565 2.381 1.2-3a6.891 6.891 0 0 0 1.365.619zm5.706-.62 1.2 3-2.565-2.381a6.891 6.891 0 0 0 1.365-.619zm-3.535-11.031a5 5 0 1 1 -5 5 5.006 5.006 0 0 1 5-5z"/><path d="m41.707 12.192a1 1 0 0 0 1.414 0 3 3 0 0 0 0-4.242 1 1 0 1 0 -1.414 1.414 1 1 0 0 1 0 1.414 1 1 0 0 0 0 1.414z"/><path d="m44.535 15.021a1 1 0 0 0 1.414 0 7 7 0 0 0 0-9.9 1 1 0 0 0 -1.414 1.414 5 5 0 0 1 0 7.07 1 1 0 0 0 0 1.416z"/><path d="m47.364 16.435a1 1 0 1 0 1.414 1.414 11.012 11.012 0 0 0 0-15.556 1 1 0 0 0 -1.414 1.414 9.01 9.01 0 0 1 0 12.728z"/><path d="m21.586 12.485a1 1 0 0 0 .707-1.707 1 1 0 0 1 0-1.414 1 1 0 0 0 -1.414-1.414 3 3 0 0 0 0 4.242.993.993 0 0 0 .707.293z"/><path d="m18.051 15.021a1 1 0 1 0 1.414-1.415 5 5 0 0 1 0-7.07 1 1 0 1 0 -1.414-1.414 7 7 0 0 0 0 9.9z"/><path d="m15.929 18.142a1 1 0 0 0 .707-1.707 9.01 9.01 0 0 1 0-12.728 1 1 0 0 0 -1.414-1.414 11.012 11.012 0 0 0 0 15.556 1 1 0 0 0 .707.293z"/></g></g></svg>