<?xml version="1.0"?>
<svg xmlns="http://www.w3.org/2000/svg" xmlns:xlink="http://www.w3.org/1999/xlink" version="1.1" id="Capa_1" x="0px" y="0px" viewBox="0 0 512 512" style="enable-background:new 0 0 512 512;" xml:space="preserve" width="512px" height="512px" class=""><g><g>
	<path style="fill:#FF901E;" d="M118.669,411.111H64.974c-7.95,0-14.396,6.445-14.396,14.396v19.301   c0,7.951,6.445,14.396,14.396,14.396h53.696L118.669,411.111L118.669,411.111z" data-original="#FF901E"/>
	<path style="fill:#FF901E;" d="M50.578,86.493V67.192c0-7.951,6.445-14.396,14.396-14.396h53.696v48.092H64.974   C57.023,100.889,50.578,94.444,50.578,86.493z" data-original="#FF901E"/>
	<path style="fill:#FF901E;" d="M50.578,176.072v-19.301c0-7.951,6.445-14.396,14.396-14.396h53.696v48.092H64.974   C57.023,190.467,50.578,184.022,50.578,176.072z" data-original="#FF901E"/>
	<path style="fill:#FF901E;" d="M50.578,265.65v-19.3c0-7.951,6.445-14.396,14.396-14.396h53.696v48.092H64.974   C57.023,280.046,50.578,273.601,50.578,265.65z" data-original="#FF901E"/>
	<path style="fill:#FF901E;" d="M50.578,355.229v-19.301c0-7.951,6.445-14.396,14.396-14.396h53.696v48.092H64.974   C57.023,369.625,50.578,363.179,50.578,355.229z" data-original="#FF901E"/>
</g><g>
	<path style="fill:#FF6D3A;" d="M461.42,86.493V67.192c0-7.951-6.445-14.396-14.396-14.396h-53.696v47.871l53.696,0.221   C454.974,100.889,461.42,94.444,461.42,86.493z" data-original="#FF6D3A"/>
	<path style="fill:#FF6D3A;" d="M461.42,176.072v-19.301c0-7.951-6.445-14.396-14.396-14.396h-53.696v48.092h53.696   C454.974,190.467,461.42,184.022,461.42,176.072z" data-original="#FF6D3A"/>
	<path style="fill:#FF6D3A;" d="M461.42,265.65v-19.3c0-7.951-6.445-14.396-14.396-14.396h-53.696v48.092h53.696   C454.974,280.046,461.42,273.601,461.42,265.65z" data-original="#FF6D3A"/>
	<path style="fill:#FF6D3A;" d="M461.42,355.229v-19.301c0-7.951-6.445-14.396-14.396-14.396h-53.696v48.092h53.696   C454.974,369.625,461.42,363.179,461.42,355.229z" data-original="#FF6D3A"/>
	<path style="fill:#FF6D3A;" d="M461.42,444.808v-19.301c0-7.951-6.445-14.396-14.396-14.396h-53.696v48.092h53.696   C454.974,459.203,461.42,452.758,461.42,444.808z" data-original="#FF6D3A"/>
</g><path style="fill:#FFB124;" d="M372.357,504.713H139.641c-11.582,0-20.971-9.389-20.971-20.971V28.258  c0-11.582,9.389-20.971,20.971-20.971h232.717c11.582,0,20.971,9.389,20.971,20.971v455.485  C393.328,495.324,383.94,504.713,372.357,504.713z" data-original="#FFB124" class=""/><path style="fill:#FF901E;" d="M372.357,7.287H139.641c-1.672,0-3.291,0.217-4.85,0.586h200.503  c11.582,0,20.971,9.389,20.971,20.971v455.485c0,9.91-6.882,18.193-16.121,20.385h32.213c11.582,0,20.971-9.389,20.971-20.971  V28.258C393.328,16.676,383.94,7.287,372.357,7.287z" data-original="#FF901E"/><path style="fill:#2D5872;" d="M182.826,428.015V83.985c0-6.927,5.616-12.543,12.543-12.543H316.63  c6.927,0,12.543,5.616,12.543,12.543v344.029c0,6.927-5.616,12.543-12.543,12.543H195.368  C188.441,440.558,182.826,434.942,182.826,428.015z" data-original="#2D5872" class=""/><path style="fill:#1D4859;" d="M316.63,71.442h-37.002c6.927,0,12.543,5.616,12.543,12.543v344.029  c0,6.927-5.616,12.543-12.543,12.543h37.002c6.927,0,12.543-5.616,12.543-12.543V83.985  C329.174,77.058,323.557,71.442,316.63,71.442z" data-original="#1D4859" class=""/><g>
	<path style="fill:#FFFCFD;" d="M286.95,328.817h-59.12c-2.117,0-3.833-1.716-3.833-3.833v-10.86c0-3.339,0.315-6.276,0.946-8.812   c0.631-2.535,1.62-4.755,2.968-6.66c1.349-1.905,3.167-3.352,5.454-4.342c2.288-0.989,5.028-1.484,8.218-1.484   c1.386,0,2.622,0.05,3.711,0.148c1.089,0.099,2.332,0.328,3.729,0.686c1.398,0.359,2.635,0.847,3.711,1.465   c1.076,0.619,2.133,1.509,3.172,2.672s1.905,2.536,2.598,4.118c10.387-3.273,19.469-6.2,27.247-8.78   c2.481-0.823,5.033,1.026,5.033,3.64v5.669c0,1.761-1.2,3.295-2.909,3.72l-27.85,6.92v2.226h26.926   c2.117,0,3.833,1.716,3.833,3.833v5.84C290.782,327.101,289.066,328.817,286.95,328.817z M251.786,315.311v-3.859   c0-1.039-0.346-1.93-1.039-2.672c-0.692-0.742-1.57-1.28-2.634-1.614c-1.063-0.334-2.041-0.569-2.931-0.705   s-1.731-0.204-2.523-0.204c-0.792,0-1.608,0.056-2.449,0.167s-1.774,0.309-2.801,0.593c-1.026,0.285-1.867,0.755-2.523,1.41   c-0.655,0.656-0.983,1.453-0.983,2.393v4.49h17.883V315.311z" data-original="#FFFCFD"/>
	<path style="fill:#FFFCFD;" d="M286.989,284.683l-60.52-13.079c-1.442-0.312-2.471-1.587-2.471-3.062v-6.89   c0-1.476,1.03-2.752,2.473-3.063l60.52-13.045c1.951-0.421,3.793,1.067,3.793,3.063v6.852c0,1.502-1.066,2.793-2.542,3.077   l-11.743,2.257v8.72l11.712,2.129c1.49,0.271,2.573,1.568,2.573,3.083v6.897C290.782,283.618,288.94,285.105,286.989,284.683z    M268.188,268.584v-6.901l-24.786,3.377L268.188,268.584z" data-original="#FFFCFD"/>
	<path style="fill:#FFFCFD;" d="M288.461,235.103h-62.143c-1.282,0-2.322-1.039-2.322-2.322v-11.876   c0-1.141,0.829-2.112,1.955-2.292l42.57-6.811l-42.598-7.348c-1.113-0.192-1.927-1.158-1.927-2.288v-11.344   c0-1.282,1.039-2.322,2.322-2.322h62.143c1.282,0,2.322,1.039,2.322,2.322v5.315c0,1.276-1.031,2.314-2.307,2.322l-44.666,0.282   c4.824,0.742,12.652,2.041,23.487,3.896c9.475,1.623,16.652,2.82,21.53,3.591c1.128,0.178,1.957,1.151,1.957,2.293v6.151   c0,1.129-0.812,2.094-1.925,2.287l-45.345,7.866l44.963,0.282c1.276,0.008,2.307,1.045,2.307,2.322v5.352   C290.782,234.064,289.743,235.103,288.461,235.103z" data-original="#FFFCFD"/>
</g><path d="M235.596,433.271h-40.228c-2.898,0-5.257-2.358-5.257-5.256V83.985c0-2.898,2.358-5.256,5.257-5.256h40.135  c4.024,0,7.287-3.262,7.287-7.287c0-4.024-3.262-7.287-7.287-7.287h-40.135c-10.934,0-19.83,8.895-19.83,19.829v344.029  c0,10.934,8.896,19.829,19.83,19.829h40.228c4.024,0,7.287-3.262,7.287-7.287S239.621,433.271,235.596,433.271z" data-original="#000000" class="active-path" style="fill:#000000"/><path d="M316.63,64.156h-43.993c-4.025,0-7.287,3.262-7.287,7.287c0,4.024,3.262,7.287,7.287,7.287h43.993  c2.898,0,5.256,2.358,5.256,5.256v344.029c0,2.898-2.358,5.256-5.256,5.256h-43.905c-4.025,0-7.286,3.262-7.286,7.287  s3.262,7.287,7.286,7.287h43.905c10.934,0,19.829-8.895,19.829-19.829V83.985C336.459,73.051,327.563,64.156,316.63,64.156z" data-original="#000000" class="active-path" style="fill:#000000"/><path d="M447.023,108.176c11.956,0,21.683-9.727,21.683-21.682V67.193c0-11.955-9.727-21.682-21.683-21.682h-46.409V28.258  C400.615,12.676,387.938,0,372.357,0H139.641c-15.581,0-28.258,12.676-28.258,28.258V45.51H64.974  c-11.955,0-21.682,9.727-21.682,21.682v19.301c0,11.955,9.727,21.682,21.682,21.682h46.409v26.913H64.974  c-11.955,0-21.682,9.727-21.682,21.682v19.301c0,11.955,9.727,21.682,21.682,21.682h46.409v26.914H64.974  c-11.955,0-21.682,9.727-21.682,21.682v19.301c0,11.955,9.727,21.682,21.682,21.682h46.409v26.914H64.974  c-11.955,0-21.682,9.727-21.682,21.682v19.301c0,11.955,9.727,21.682,21.682,21.682h46.409v26.913H64.974  c-11.955,0-21.682,9.727-21.682,21.682v19.301c0,11.955,9.727,21.682,21.682,21.682h46.409v17.253  c0,15.581,12.676,28.258,28.258,28.258h232.717c15.581,0,28.257-12.676,28.257-28.258V466.49h46.409  c11.956,0,21.683-9.727,21.683-21.682v-19.301c0-11.955-9.727-21.682-21.683-21.682h-46.409v-26.913h46.409  c11.956,0,21.683-9.727,21.683-21.682v-19.301c0-11.955-9.727-21.682-21.683-21.682h-46.409v-26.914h46.409  c11.956,0,21.683-9.727,21.683-21.682V246.35c0-11.955-9.727-21.682-21.683-21.682h-46.409v-26.914h46.409  c11.956,0,21.683-9.727,21.683-21.682v-19.301c0-11.955-9.727-21.682-21.683-21.682h-46.409v-26.913L447.023,108.176  L447.023,108.176z M400.615,60.083h46.408c3.92,0,7.11,3.189,7.11,7.109v19.301c0,3.92-3.19,7.109-7.11,7.109h-46.408V60.083z   M111.383,451.917H64.974c-3.92,0-7.109-3.189-7.109-7.109v-19.301c0-3.92,3.189-7.109,7.109-7.109h46.409V451.917z   M111.383,362.338H64.974c-3.92,0-7.109-3.189-7.109-7.109v-19.301c0-3.92,3.189-7.109,7.109-7.109h46.409V362.338z   M111.383,272.759H64.974c-3.92,0-7.109-3.189-7.109-7.109v-19.3c0-3.92,3.189-7.109,7.109-7.109h46.409V272.759z M111.383,183.181  H64.974c-3.92,0-7.109-3.189-7.109-7.109v-19.301c0-3.92,3.189-7.109,7.109-7.109h46.409V183.181z M111.383,93.602H64.974  c-3.92,0-7.109-3.189-7.109-7.109v-19.3c0-3.92,3.189-7.109,7.109-7.109h46.409V93.602z M386.042,483.742  c0,7.546-6.139,13.685-13.684,13.685H139.641c-7.546,0-13.685-6.139-13.685-13.685v-24.539v-48.092v-41.486v-48.092v-41.487v-48.092  v-41.487v-48.092v-41.486V52.797V28.258c0-7.546,6.139-13.685,13.685-13.685h232.717c7.546,0,13.684,6.139,13.684,13.685V483.742z   M400.615,418.398h46.408c3.92,0,7.11,3.189,7.11,7.109v19.301c0,3.92-3.19,7.109-7.11,7.109h-46.408V418.398z M400.615,328.819  h46.408c3.92,0,7.11,3.189,7.11,7.109v19.301c0,3.92-3.19,7.109-7.11,7.109h-46.408V328.819z M400.615,239.241h46.408  c3.92,0,7.11,3.189,7.11,7.109v19.301c0,3.92-3.19,7.109-7.11,7.109h-46.408V239.241z M400.615,149.662h46.408  c3.92,0,7.11,3.189,7.11,7.109v19.301c0,3.92-3.19,7.109-7.11,7.109h-46.408V149.662z" data-original="#000000" class="active-path" style="fill:#000000"/></g> </svg>
