<?xml version="1.0" encoding="iso-8859-1"?>
<!-- Generator: Adobe Illustrator 19.0.0, SVG Export Plug-In . SVG Version: 6.00 Build 0)  -->
<svg version="1.1" id="Capa_1" xmlns="http://www.w3.org/2000/svg" xmlns:xlink="http://www.w3.org/1999/xlink" x="0px" y="0px"
	 viewBox="0 0 512.001 512.001" style="enable-background:new 0 0 512.001 512.001;" xml:space="preserve">
<path style="fill:#FEDB41;" d="M112.246,270.261c-17.348-17.043-47.478-17.043-64.522,0c-13.087,13.087-38.958,73.042-46.262,91
	c-2.436,5.783-1.216,12.477,3.044,16.739c4.564,4.261,10.957,5.783,16.739,3.348c17.955-7.609,77.913-33.477,91-46.26
	C130.201,317.129,129.899,288.216,112.246,270.261z"/>
<path style="fill:#FFCC33;" d="M241.289,399.608c-17.043-17.348-47.174-17.348-64.522,0c-13.087,12.782-38.653,72.739-46.262,91
	c-2.434,5.478-1.216,12.175,3.349,16.434c4.26,4.566,10.957,5.783,16.434,3.349c18.26-7.609,77.913-33.175,91-46.262
	C259.246,446.173,259.246,417.26,241.289,399.608z"/>
<path style="fill:#C5C9F7;" d="M156.941,87.147L38.769,72.376c-4.607-0.49-9.318,1.026-12.647,4.339L4.604,98.233
	c-5.944,5.944-5.944,15.574,0,21.518l64.555,64.569c2.972,2.972,6.866,4.459,10.759,4.459l90.234-84.647
	C171.193,95.795,165.278,88.187,156.941,87.147z"/>
<path style="fill:#A8AFF1;" d="M424.999,355.205c-1.055-8.337-8.693-14.267-16.986-13.211l-80.173,79.49
	c-5.944,5.944-5.944,15.574,0,21.518l64.555,64.54c2.972,2.972,6.866,4.459,10.759,4.459s7.787-1.486,10.759-4.459l21.518-21.518
	c3.329-3.314,4.919-7.98,4.339-12.647L424.999,355.205z"/>
<path style="fill:#F40F78;" d="M280.434,88.499l-90.026-8.218c-22.737-2.021-44.686,5.959-60.706,21.979L48.34,183.622
	c-5.944,5.944-5.944,15.574,0,21.518l43.037,43.052c2.972,2.972,6.866,4.459,10.759,4.459c3.893,0,7.787-1.486,10.759-4.459
	L294.21,105.039C294.968,96.673,288.801,89.272,280.434,88.499z"/>
<path style="fill:#CE0067;" d="M423.587,231.088c-0.773-8.382-7.861-14.563-16.54-13.776l-143.51,181.524
	c-5.944,5.944-5.944,15.574,0,21.518l43.468,43.453c2.972,2.972,6.866,4.459,10.759,4.459s7.787-1.486,10.759-4.459l81.362-81.362
	c16.02-16.02,24.03-38.162,21.964-60.721L423.587,231.088z"/>
<path style="fill:#E1E4FB;" d="M445.202,216.086c-3.044,3.348-5.783,7.001-9.13,10.349
	c-38.348,38.043-145.175,144.869-183.218,183.216c-21.61-21.608-43.216-43.216-64.522-64.522
	c-3.652-3.652-6.999-6.999-10.653-10.651l-10.957-10.957C145.114,301.912,123.81,280.608,102.2,259
	c38.043-38.348,144.869-145.175,183.218-183.218c3.348-3.348,6.695-6.392,10.044-9.435l24.042,11.261l57.217,57.522l57.217,57.217
	L445.202,216.086z"/>
<path style="fill:#C5C9F7;" d="M445.202,216.086c-3.044,3.348-5.783,7.001-9.13,10.349
	c-38.348,38.043-145.175,144.869-183.218,183.216c-21.61-21.608-43.216-43.216-64.522-64.522
	c-3.652-3.652-6.999-6.999-10.653-10.651L376.723,135.13l57.217,57.217L445.202,216.086z"/>
<path style="fill:#FF507E;" d="M511.855,15.217v28.304c0,63-22.826,123.869-66.652,172.564l-74.871-74.868l-74.868-74.87
	C344.158,22.826,405.333,0,468.333,0h28.304c4.261,0,7.913,1.522,10.651,4.261C510.029,6.999,511.855,10.957,511.855,15.217z"/>
<path style="fill:#F40F78;" d="M511.855,15.217v28.304c0,63-22.826,123.869-66.652,172.564l-74.871-74.868L507.289,4.261
	C510.029,6.999,511.855,10.957,511.855,15.217z"/>
<path style="fill:#FF507E;" d="M219.679,162.825c-17.651-17.956-46.564-17.956-64.522,0l-86.128,86.131
	c-2.74,2.74-4.261,6.695-4.261,10.651s1.522,7.913,4.261,10.653l43.216,43.217c5.783,5.783,15.522,5.783,21.61,0l85.824-86.131
	C237.637,209.696,237.637,180.478,219.679,162.825z"/>
<path style="fill:#F40F78;" d="M349.027,291.868c-17.956-17.651-46.869-17.651-64.522,0L198.376,378
	c-6.087,6.087-6.087,15.522,0,21.61l42.912,42.912c6.087,6.087,15.522,6.087,21.61,0l86.129-86.131
	C366.68,338.739,366.68,309.826,349.027,291.868z"/>
<path style="fill:#C5C9F7;" d="M262.899,270.261l-74.565,74.868c-3.652-3.652-6.999-6.999-10.653-10.651l-10.957-10.957
	l74.565-74.565c6.087-6.087,15.522-6.087,21.61,0C268.681,254.739,268.681,264.478,262.899,270.261z"/>
<path style="fill:#A8AFF1;" d="M262.899,270.261l-74.565,74.868c-3.652-3.652-6.999-6.999-10.653-10.651l85.218-85.522
	C268.681,254.739,268.681,264.478,262.899,270.261z"/>
<path style="fill:#17ACE8;" d="M349.027,162.825c-17.956-17.956-46.869-17.956-64.522,0c-17.956,17.653-17.956,46.871,0,64.522
	c17.653,17.958,46.566,17.958,64.522,0C366.68,209.696,366.68,180.478,349.027,162.825z"/>
<path style="fill:#1689FC;" d="M349.027,227.347c-17.956,17.958-46.869,17.958-64.522,0l64.522-64.522
	C366.68,180.478,366.68,209.696,349.027,227.347z"/>
<g>
</g>
<g>
</g>
<g>
</g>
<g>
</g>
<g>
</g>
<g>
</g>
<g>
</g>
<g>
</g>
<g>
</g>
<g>
</g>
<g>
</g>
<g>
</g>
<g>
</g>
<g>
</g>
<g>
</g>
</svg>
